<?xml version="1.0" encoding="UTF-8"?>
<!DOCTYPE svg PUBLIC "-//W3C//DTD SVG 1.1//EN" "http://www.w3.org/Graphics/SVG/1.1/DTD/svg11.dtd">
<!-- Creator: CorelDRAW X8 -->
<svg xmlns="http://www.w3.org/2000/svg" xml:space="preserve" width="710px" height="512px" version="1.1" style="shape-rendering:geometricPrecision; text-rendering:geometricPrecision; image-rendering:optimizeQuality; fill-rule:evenodd; clip-rule:evenodd"
viewBox="0 0 710 512"
 xmlns:xlink="http://www.w3.org/1999/xlink">
 <defs>
  <style type="text/css">
   <![CDATA[
    .str0 {stroke:white;stroke-width:0.491435}
    .fil3 {fill:#434242;fill-rule:nonzero}
    .fil2 {fill:#F39314;fill-rule:nonzero}
    .fil1 {fill:#00597A;fill-rule:nonzero}
    .fil0 {fill:#80C7BA;fill-rule:nonzero}
   ]]>
  </style>
 </defs>
 <g id="Layer_x0020_1">
  <metadata id="CorelCorpID_0Corel-Layer"/>
  <g id="_1514431610336">
   <path class="fil0 str0" d="M579 374c-75,0 -109,-67 -109,-133 0,-62 31,-135 117,-135 58,0 89,39 89,66 0,20 -16,30 -31,30 -4,0 -19,-1 -28,-19 -8,-16 -16,-33 -38,-33 -28,0 -48,31 -48,73 0,52 27,90 63,90 28,0 41,-20 48,-30l1 -1c6,-9 9,-14 18,-14 10,0 17,8 17,20 0,30 -29,86 -99,86z"/>
   <path class="fil0 str0" d="M305 335c-3,0 -5,0 -8,0 -33,-1 -34,-32 -34,-45l0 -107c-1,0 -2,0 -3,0 -29,0 -52,-22 -52,-49 0,-28 23,-50 52,-50 1,0 2,1 3,1l0 -23c0,-5 0,-13 -7,-13 -2,0 -3,0 -9,4l-35 22c-8,5 -9,7 -9,16l0 27 -13 0c-6,0 -4,2 -4,7 0,3 0,5 0,6 -1,12 1,13 1,13l16 0 0 126c2,7 4,15 4,24 0,7 -1,14 -4,22 2,10 5,21 14,31 10,12 27,21 54,21 20,0 48,-7 48,-20 -5,-4 -10,-8 -14,-13z"/>
   <path class="fil0 str0" d="M493 165l0 -154c0,-9 -3,-11 -12,-11l-38 0c-10,0 -12,5 -12,12l0 108c2,1 4,2 5,3 25,12 43,26 57,42z"/>
   <path class="fil1" d="M276 256c0,3 0,7 0,10 0,-4 0,-8 0,-10z"/>
   <path class="fil1" d="M345 287c1,0 1,0 1,1 0,0 1,1 1,3 0,-1 -1,-3 -2,-4z"/>
   <path class="fil1" d="M339 213c0,-1 0,-2 1,-3 0,0 -1,2 -1,3z"/>
   <path class="fil0 str0" d="M392 372c-30,0 -55,-7 -75,-22 -6,-4 -11,-8 -15,-13 -15,-16 -25,-38 -28,-64l3 -1 0 1c12,59 80,38 71,21 0,0 0,-1 0,-1l0 0 3 -1c10,22 28,35 49,35 28,0 28,-17 28,-32l0 -144 4 2c23,8 44,24 64,49l0 1 0 111c0,13 -1,26 -17,38 -17,11 -54,20 -87,20zm-112 -100l1 0c0,0 0,0 0,1 0,-1 -1,-1 -1,-1z"/>
   <path class="fil2 str0" d="M220 134c0,20 18,37 40,37 21,0 39,-17 39,-37 0,-21 -18,-38 -39,-38 -22,0 -40,17 -40,38z"/>
   <path class="fil2 str0" d="M288 179c0,0 -16,39 -13,75 4,37 49,65 71,34 0,0 0,0 0,0 0,-1 0,-1 -1,-1 -10,-29 -7,-63 -6,-74 0,-1 1,-3 1,-3 0,0 0,0 0,0 16,-79 91,-54 91,-54 0,0 0,0 0,0 25,9 46,28 62,48 0,1 1,1 1,2 25,32 38,66 38,66 0,0 3,-49 -29,-94 -3,-4 -6,-9 -10,-13 -14,-16 -32,-30 -57,-42 -1,-1 -3,-2 -5,-3 -22,-10 -79,-24 -121,25 -6,7 -13,16 -18,27 -1,2 -3,5 -4,7z"/>
   <polygon class="fil2" points="453,230 404,230 404,183 453,183 "/>
   <polygon class="fil0" points="408,277 359,277 359,230 408,230 "/>
   <polygon class="fil2" points="460,324 411,324 411,277 460,277 "/>
   <path class="fil0 str0" d="M129 373c-72,0 -97,-42 -97,-61 0,-17 13,-29 29,-29 16,0 24,10 31,19l1 1c11,16 20,27 38,27 16,0 28,-11 28,-26 0,-15 -9,-23 -15,-27 -6,-5 -33,-17 -47,-23l-2 -1c-15,-7 -58,-26 -58,-73 0,-34 24,-74 91,-74 64,0 87,34 87,55 0,15 -11,26 -27,26 -18,0 -26,-12 -31,-21 -6,-10 -14,-22 -31,-22 -20,0 -27,16 -27,26 0,22 21,30 38,37l25 11c22,10 61,28 61,77 0,36 -24,78 -94,78z"/>
   <path class="fil3" d="M0 440l5 -1c0,2 1,4 2,5 1,1 2,2 4,3 2,1 4,1 6,1 2,0 4,0 5,-1 2,0 3,-1 4,-2 0,-1 1,-2 1,-4 0,-1 -1,-2 -1,-3 -1,-1 -2,-1 -4,-2 -1,0 -3,-1 -7,-2 -4,-1 -6,-1 -8,-2 -2,-1 -3,-2 -4,-4 -1,-1 -1,-3 -1,-4 0,-2 0,-4 1,-6 1,-2 3,-3 5,-4 3,-1 5,-1 8,-1 3,0 5,0 8,1 2,1 4,3 5,4 1,2 2,4 2,6l-5 1c-1,-3 -2,-4 -3,-6 -2,-1 -4,-2 -7,-2 -3,0 -6,1 -7,2 -2,1 -2,3 -2,4 0,2 0,3 1,4 1,0 4,1 8,2 5,1 7,2 9,3 2,1 4,2 5,4 1,1 2,3 2,5 0,2 -1,4 -2,6 -1,2 -3,3 -5,4 -2,1 -5,1 -8,1 -4,0 -7,0 -9,-1 -2,-1 -4,-3 -6,-5 -1,-2 -2,-4 -2,-6zm66 -26l5 0 0 22c0,4 -1,7 -2,9 0,2 -2,4 -4,5 -3,2 -6,2 -10,2 -4,0 -7,0 -9,-1 -2,-2 -4,-3 -5,-6 -1,-2 -2,-5 -2,-9l0 -22 6 0 0 22c0,3 0,5 1,7 0,2 1,3 3,4 2,1 3,1 6,1 4,0 6,-1 8,-3 2,-1 3,-5 3,-9l0 -22zm14 38l0 -38 8 0 9 27c1,2 2,4 2,5 0,-1 1,-3 2,-6l10 -26 7 0 0 38 -5 0 0 -32 -12 32 -5 0 -11 -33 0 33 -5 0zm65 -15l0 -5 17 0 0 15c-2,1 -5,3 -8,4 -3,1 -5,1 -8,1 -4,0 -8,0 -11,-2 -3,-2 -6,-4 -7,-7 -2,-3 -3,-6 -3,-10 0,-4 1,-7 3,-10 1,-4 4,-6 7,-8 3,-1 6,-2 10,-2 3,0 6,0 8,1 3,1 4,2 6,4 1,2 2,4 3,6l-5 2c-1,-2 -1,-4 -2,-5 -1,-1 -2,-2 -4,-3 -2,0 -4,-1 -6,-1 -2,0 -4,1 -6,1 -2,1 -3,2 -4,3 -1,1 -2,3 -3,4 -1,2 -1,5 -1,8 0,3 0,6 2,8 1,3 3,4 5,5 2,1 5,2 7,2 3,0 5,0 7,-1 2,-1 4,-2 5,-3l0 -7 -12 0zm21 15l15 -38 6 0 16 38 -6 0 -4 -12 -17 0 -5 12 -5 0zm11 -16l14 0 -4 -10c-1,-4 -2,-6 -3,-8 -1,2 -1,5 -2,7l-5 11zm32 16l0 -38 5 0 0 17 0 21 -5 0zm24 0l0 -34 -13 0 0 -4 32 0 0 4 -13 0 0 34 -6 0zm48 0l0 -34 -13 0 0 -4 32 0 0 4 -13 0 0 34 -6 0zm25 0l0 -38 29 0 0 4 -24 0 0 12 22 0 0 4 -22 0 0 13 24 0 0 5 -29 0zm65 -14l6 2c-1,4 -3,7 -6,9 -3,2 -7,3 -11,3 -4,0 -8,0 -10,-2 -3,-2 -5,-4 -7,-7 -1,-3 -2,-7 -2,-11 0,-4 1,-7 3,-10 1,-3 4,-5 7,-7 3,-1 6,-2 9,-2 4,0 8,1 10,3 3,2 5,5 6,8l-5 1c-1,-2 -2,-5 -4,-6 -2,-1 -4,-2 -7,-2 -3,0 -5,1 -8,2 -2,2 -3,4 -4,6 -1,2 -1,5 -1,7 0,4 0,7 1,9 1,2 3,4 5,5 2,2 4,2 7,2 3,0 5,-1 7,-2 2,-2 4,-4 4,-8zm13 14l0 -38 5 0 0 15 21 0 0 -15 5 0 0 38 -5 0 0 -18 -21 0 0 18 -5 0zm40 0l0 -38 5 0 21 30 0 -30 6 0 0 38 -6 0 -21 -30 0 30 -5 0zm39 -19c0,-6 2,-11 5,-15 4,-3 8,-5 14,-5 4,0 7,1 10,3 3,1 5,4 7,7 2,3 2,6 2,10 0,4 0,7 -2,10 -2,3 -4,6 -7,7 -3,2 -6,2 -10,2 -4,0 -7,0 -10,-2 -3,-2 -5,-4 -7,-7 -1,-3 -2,-6 -2,-10zm5 0c0,5 2,9 4,11 3,3 6,4 10,4 4,0 7,-1 10,-4 3,-3 4,-6 4,-11 0,-3 -1,-6 -2,-8 -1,-3 -3,-4 -5,-6 -2,-1 -4,-2 -7,-2 -4,0 -7,2 -10,4 -2,3 -4,7 -4,12zm40 19l0 -38 5 0 0 33 20 0 0 5 -25 0zm30 -19c0,-6 2,-11 5,-15 4,-3 8,-5 14,-5 4,0 7,1 10,3 3,1 5,4 7,7 1,3 2,6 2,10 0,4 -1,7 -2,10 -2,3 -4,6 -7,7 -3,2 -7,2 -10,2 -4,0 -7,0 -10,-2 -3,-2 -5,-4 -7,-7 -1,-3 -2,-6 -2,-10zm5 0c0,5 2,9 4,11 3,3 6,4 10,4 4,0 7,-1 10,-4 2,-3 4,-6 4,-11 0,-3 -1,-6 -2,-8 -1,-3 -3,-4 -5,-6 -2,-1 -4,-2 -7,-2 -4,0 -7,2 -10,4 -2,3 -4,7 -4,12zm59 4l0 -5 17 0 0 15c-3,1 -5,3 -8,4 -3,1 -6,1 -9,1 -4,0 -7,0 -11,-2 -3,-2 -5,-4 -7,-7 -1,-3 -2,-6 -2,-10 0,-4 1,-7 2,-10 2,-4 4,-6 7,-8 3,-1 7,-2 11,-2 3,0 5,0 8,1 2,1 4,2 5,4 2,2 3,4 3,6l-5 2c0,-2 -1,-4 -2,-5 -1,-1 -2,-2 -4,-3 -1,0 -3,-1 -5,-1 -3,0 -5,1 -6,1 -2,1 -4,2 -5,3 -1,1 -2,3 -2,4 -1,2 -2,5 -2,8 0,3 1,6 2,8 1,3 3,4 5,5 3,1 5,2 8,2 2,0 5,0 7,-1 2,-1 4,-2 5,-3l0 -7 -12 0zm26 15l0 -38 5 0 0 38 -5 0zm14 0l0 -38 29 0 0 4 -23 0 0 12 22 0 0 4 -22 0 0 13 24 0 0 5 -30 0zm36 -12l5 -1c0,2 1,4 2,5 1,1 2,2 4,3 2,1 4,1 6,1 2,0 4,0 5,-1 2,0 3,-1 4,-2 1,-1 1,-2 1,-4 0,-1 0,-2 -1,-3 -1,-1 -2,-1 -4,-2 -1,0 -3,-1 -7,-2 -4,-1 -6,-1 -8,-2 -2,-1 -3,-2 -4,-4 -1,-1 -1,-3 -1,-4 0,-2 0,-4 1,-6 1,-2 3,-3 5,-4 3,-1 5,-1 8,-1 3,0 5,0 8,1 2,1 4,3 5,4 1,2 2,4 2,6l-5 1c-1,-3 -1,-4 -3,-6 -2,-1 -4,-2 -7,-2 -3,0 -6,1 -7,2 -2,1 -2,3 -2,4 0,2 0,3 1,4 1,0 4,1 8,2 5,1 8,2 9,3 2,1 4,2 5,4 1,1 2,3 2,5 0,2 -1,4 -2,6 -1,2 -3,3 -5,4 -2,1 -5,1 -8,1 -3,0 -7,0 -9,-1 -2,-1 -4,-3 -6,-5 -1,-2 -2,-4 -2,-6zm-520 71l0 -38 14 0c3,0 5,0 7,1 2,0 4,1 6,3 2,1 3,3 4,6 1,3 2,6 2,9 0,3 0,6 -1,8 -1,2 -2,4 -3,5 -1,2 -2,3 -3,4 -2,1 -3,1 -5,2 -2,0 -4,0 -7,0l-14 0zm5 -4l9 0c2,0 4,0 6,-1 1,0 3,-1 3,-2 2,-1 3,-3 3,-5 1,-2 1,-4 1,-7 0,-4 0,-7 -2,-9 -1,-2 -3,-4 -5,-5 -1,0 -3,0 -6,0l-9 0 0 29zm31 4l15 -38 6 0 17 38 -7 0 -4 -11 -17 0 -4 11 -6 0zm11 -15l14 0 -4 -11c-1,-3 -2,-6 -3,-8 0,3 -1,5 -2,8l-5 11zm37 15l0 -33 -13 0 0 -5 31 0 0 5 -13 0 0 33 -5 0zm15 0l16 -38 6 0 16 38 -6 0 -5 -11 -17 0 -4 11 -6 0zm12 -15l14 0 -5 -11c-1,-3 -2,-6 -3,-8 0,3 -1,5 -2,8l-4 11zm71 2l6 1c-1,4 -3,8 -6,10 -3,2 -7,3 -11,3 -4,0 -8,-1 -11,-2 -2,-2 -4,-5 -6,-8 -1,-3 -2,-6 -2,-10 0,-4 1,-7 3,-10 1,-3 3,-6 6,-7 3,-2 7,-2 10,-2 4,0 7,1 10,3 3,1 5,4 6,8l-5 1c-1,-3 -3,-5 -4,-6 -2,-1 -4,-2 -7,-2 -3,0 -6,1 -8,2 -2,1 -3,3 -4,6 -1,2 -1,5 -1,7 0,3 0,6 1,9 1,2 3,4 5,5 2,1 4,2 7,2 3,0 5,-1 7,-3 2,-1 4,-4 4,-7zm12 13l0 -38 29 0 0 5 -23 0 0 11 22 0 0 5 -22 0 0 13 24 0 0 4 -30 0zm38 0l0 -38 5 0 21 30 0 -30 5 0 0 38 -5 0 -21 -30 0 30 -5 0zm50 0l0 -33 -13 0 0 -5 32 0 0 5 -13 0 0 33 -6 0zm25 0l0 -38 29 0 0 5 -24 0 0 11 22 0 0 5 -22 0 0 13 25 0 0 4 -30 0zm37 0l0 -38 18 0c3,0 6,1 8,1 2,1 3,2 5,4 1,2 1,4 1,6 0,2 -1,5 -3,6 -1,2 -4,4 -8,4 1,1 2,1 3,2 2,1 3,3 4,5l7 10 -6 0 -6 -8c-1,-2 -2,-4 -3,-5 -1,-1 -2,-2 -3,-2 -1,-1 -2,-1 -2,-1 -1,0 -2,-1 -3,-1l-7 0 0 17 -5 0zm5 -21l12 0c2,0 4,0 6,-1 1,0 2,-1 3,-2 0,-1 1,-2 1,-3 0,-2 -1,-4 -2,-5 -2,-1 -4,-2 -7,-2l-13 0 0 13z"/>
  </g>
 </g>
</svg>
